<svg width="64" height="64" viewBox="0 0 64 64" fill="none" xmlns="http://www.w3.org/2000/svg">
  <defs>
    <linearGradient id="g" x1="10" y1="10" x2="54" y2="54" gradientUnits="userSpaceOnUse">
      <stop stop-color="#6c63ff"/>
      <stop offset="0.55" stop-color="#00d4ff"/>
      <stop offset="1" stop-color="#ff6b9d"/>
    </linearGradient>
    <filter id="s" x="-20%" y="-20%" width="140%" height="140%" color-interpolation-filters="sRGB">
      <feDropShadow dx="0" dy="10" stdDeviation="10" flood-color="#0b1020" flood-opacity="0.18"/>
    </filter>
  </defs>
  <rect x="6" y="6" width="52" height="52" rx="16" fill="url(#g)" filter="url(#s)"/>
  <path d="M20 44V21.5c0-1.4 1.1-2.5 2.5-2.5h0.7c0.9 0 1.8 0.5 2.2 1.3l6.6 12.7 6.6-12.7c0.4-0.8 1.3-1.3 2.2-1.3h0.7c1.4 0 2.5 1.1 2.5 2.5V44c0 1.1-0.9 2-2 2s-2-0.9-2-2V28.9l-4.8 9.2c-0.4 0.8-1.3 1.3-2.2 1.3s-1.8-0.5-2.2-1.3l-4.8-9.2V44c0 1.1-0.9 2-2 2s-2-0.9-2-2Z" fill="#ffffff" fill-opacity="0.96"/>
  <circle cx="46.5" cy="18.5" r="4.5" fill="#ffffff" fill-opacity="0.92"/>
</svg>

