<svg width="420" height="120" viewBox="0 0 420 120" fill="none" xmlns="http://www.w3.org/2000/svg">
  <defs>
    <linearGradient id="g" x1="40" y1="20" x2="100" y2="100" gradientUnits="userSpaceOnUse">
      <stop stop-color="#6c63ff"/>
      <stop offset="0.55" stop-color="#00d4ff"/>
      <stop offset="1" stop-color="#ff6b9d"/>
    </linearGradient>
    <linearGradient id="t" x1="140" y1="28" x2="370" y2="92" gradientUnits="userSpaceOnUse">
      <stop stop-color="#6c63ff"/>
      <stop offset="0.6" stop-color="#00d4ff"/>
      <stop offset="1" stop-color="#ff6b9d"/>
    </linearGradient>
    <filter id="s" x="-20%" y="-20%" width="140%" height="140%" color-interpolation-filters="sRGB">
      <feDropShadow dx="0" dy="10" stdDeviation="12" flood-color="#0b1020" flood-opacity="0.22"/>
    </filter>
  </defs>

  <rect x="24" y="24" width="72" height="72" rx="22" fill="url(#g)" filter="url(#s)"/>
  <path d="M42 84V51.5c0-1.7 1.3-3 3-3h1.1c1.1 0 2.1 0.6 2.6 1.6L60 69.9l11.3-19.8c0.5-1 1.5-1.6 2.6-1.6H75c1.7 0 3 1.3 3 3V84c0 1.4-1.1 2.5-2.5 2.5S73 85.4 73 84V59.5l-8.6 15.2c-0.6 1-1.6 1.6-2.7 1.6s-2.1-0.6-2.7-1.6L50.4 59.5V84c0 1.4-1.1 2.5-2.5 2.5S42 85.4 42 84Z" fill="#ffffff" fill-opacity="0.96"/>
  <circle cx="84.5" cy="44.5" r="6.5" fill="#ffffff" fill-opacity="0.92"/>

  <path d="M142.6 84V38.8h12.2l19.6 28.9 19.6-28.9h12.1V84h-11.7V58.7l-17.1 24.9h-5.7l-17.1-24.9V84h-11.9Z" fill="url(#t)"/>
  <path d="M223.8 84V38.8h11.9V84h-11.9Z" fill="url(#t)"/>
  <path d="M250.1 84V38.8h11.9V73.6h24.3V84h-36.2Z" fill="url(#t)"/>
  <path d="M293.6 84V38.8h11.9V84h-11.9Z" fill="url(#t)"/>
  <path d="M330.4 84V66.6l-20.6-27.8h13.9l12.8 18 12.9-18h13.7l-20.7 27.8V84h-12Z" fill="url(#t)"/>
</svg>

